<svg xmlns="http://www.w3.org/2000/svg" width="512" height="512" viewBox="0 0 512 512" data-svgdocument="" id="_qvrgJfsjwFvptiUGRXIX1" class="fl-svgdocument" x="0" y="0" style="overflow: hidden;" xmlns:xlink="http://www.w3.org/1999/xlink"><defs id="_jYPUeHPnRiXWk2fM8ibmp" transform="matrix(1.0000001038291197, 0, 0, 1.0000001038291197, 0.000002754245575820324, 0.0000024863950382376796)"></defs><polygon id="_0Yrec5tABKbRTBSb11xrS" points="457.264,362.924 45.205,362.924 0,249.021 45.205,135.118 457.264,135.118 501.101,249.021 " fill="#2b2724" transform="matrix(0.830171939499922, 0, 0, 0.830171939499922, 47.999999999999986, 49.26975036293982)"></polygon><g id="_bAnXIKnqlMt_JcvWrAu3-" transform="matrix(0.8125000864229646, 0, 0, 0.8125000864229646, 47.645234851997415, 48.000002057669754)"><path id="_evmrBs690GgxCXTUVKQPI" d="M142.867,170.937c0,0-8.11-20.3-38.496-20.454c-25.885-0.132-43.049,12.163-44.509,16.042  c-1.555,4.136-1.719,5.824-1.719,5.824s-0.427,0.594,5.07-1.204c9.101-2.979,14.011-2.922,23.764-2.204  c13.845,1.018,9.697,1.606,23.039,3.518c10.045,1.437,13.955,2.068,22.247,1.034C137.525,172.833,142.867,170.937,142.867,170.937z" fill="#ffffff" transform="matrix(1.3251014947891235, 0, 0, 1.3251014947891235, 123.26239013671875, -22.749557495117188)"></path><path id="_4TKxxiavzCnmTRBrP5_rt" d="M58.106,178.665c0,0,1.062,18.114,13.251,20.224c7.438,1.285,17.105,0.883,26.789,1.314  c30.69,1.365,41.506-13.25,42.964-17.124c1.555-4.138,1.717-5.826,1.717-5.826s0.312-0.916-5.068,1.204  c-7.875,3.099-11.349,3.234-20.641,2.637c-13.853-0.888-12.82-2.04-26.162-3.95c-10.045-1.438-13.954-2.068-22.248-1.034  C63.445,176.769,58.106,178.665,58.106,178.665z" fill="#ffffff" transform="matrix(1.3251014947891235, 0, 0, 1.3251014947891235, 123.30118560791016, -23.568286895751953)"></path></g><path id="_OwowqnWVeAQtneilo8VlR" fill="#ffffff" transform="matrix(0.631982147693634, 0, 0, 0.631982147693634, 254.48324584960938, 313.8895568847656)" text="KÃVOVAL" text-anchor="middle" font-size="100" letter-spacing="15" side="left" offset="0.5" dx="0" dy="0" space="preserve" font-family="Pathway Gothic One" font-scale="contain" x="0" y="0" data-fl-textpath="" d="M-162.35-25.2L-162.35 0L-170.35 0L-170.35-70L-162.35-70L-162.35-40.4L-147.65-70L-139.65-70L-154.95000000000002-39.9L-139.05 0L-147.05 0L-159.15-31.5L-162.35-25.2ZM-85.75000000000001 0L-93.75000000000001 0L-96.85000000000001-18.2L-110.95000000000002-18.2L-113.95000000000002 0L-121.95000000000002 0L-109.15-70L-98.55000000000001-70L-85.75000000000001 0ZM-97.95000000000002-24.6L-103.85000000000001-59.9L-109.85000000000001-24.6L-97.95000000000002-24.6ZM-109.75000000000001-76.2L-111.95000000000002-79.8L-98.95000000000002-91.6L-95.45000000000002-84.9L-109.75000000000001-76.2ZM-69.75000000000001-70L-61.75000000000001-70L-51.75000000000001-11.6L-41.75000000000001-70L-33.75000000000001-70L-46.75000000000001 0L-56.75000000000001 0L-69.75000000000001-70ZM 19.049999999999997-49.1L 19.049999999999997-49.1L 19.049999999999997-20.9Q 19.049999999999997-8.2  14.999999999999993-3.35Q 10.949999999999996 1.5  3.399999999999995 1.5Q-4.150000000000006 1.5 -8.200000000000006-3.35Q-12.250000000000005-8.2 -12.250000000000005-20.9L-12.250000000000005-20.9L-12.250000000000005-49.1Q-12.250000000000005-61.8 -8.200000000000006-66.65Q-4.150000000000006-71.5  3.399999999999995-71.5Q 10.949999999999996-71.5  14.999999999999993-66.65Q 19.049999999999997-61.8  19.049999999999997-49.1ZM 11.149999999999995-19.4L 11.149999999999995-19.4L 11.149999999999995-50.6Q 11.149999999999995-65  3.4499999999999957-65L 3.4499999999999957-65Q-0.2500000000000071-65 -2.300000000000006-61.9Q-4.350000000000005-58.8 -4.350000000000005-50.6L-4.350000000000005-50.6L-4.350000000000005-19.4Q-4.350000000000005-11.2 -2.300000000000006-8.1Q-0.2500000000000071-5  3.4499999999999957-5L 3.4499999999999957-5Q 11.149999999999995-5  11.149999999999995-19.4ZM 40.55-70L 48.55-70L 58.55-11.6L 68.55-70L 76.55-70L 63.55 0L 53.55 0L 40.55-70ZM 128.75 0L 120.74999999999999 0L 117.64999999999999-18.2L 103.54999999999998-18.2L 100.54999999999998 0L 92.54999999999998 0L 105.35-70L 115.94999999999999-70L 128.75 0ZM 116.54999999999998-24.6L 110.64999999999999-59.9L 104.64999999999999-24.6L 116.54999999999998-24.6ZM 175.15 0L 151.65 0L 151.65-70L 159.65-70L 159.65-6.4L 175.15-6.4L 175.15 0Z" href=""></path><path text="E S T ." text-anchor="end" font-size="100" letter-spacing="0" side="left" offset="1" dx="0" dy="0" space="preserve" href="" font-family="Montserrat" font-scale="contain" transform="matrix(0.2886892855167389, 0, 0, 0.2886892855167389, 193.4134979248047, 235.05372619628906)" x="0" y="0" fill="#705a13" data-fl-textpath="" id="_KHqTmOUZK_37nwWSRL7Oh" font-weight="700" d="M-279.40000000000003-13L-241.3-13L-241.3 0L-295.5 0L-295.5-70L-242.60000000000002-70L-242.60000000000002-57L-279.40000000000003-57L-279.40000000000003-41.8L-246.9-41.8L-246.9-29.2L-279.40000000000003-29.2L-279.40000000000003-13ZM-177.09999999999997 1.2Q-185.39999999999998 1.2 -193.14999999999998-1.05Q-200.89999999999998-3.3 -205.59999999999997-6.9L-205.59999999999997-6.9L-200.09999999999997-19.1Q-195.59999999999997-15.8 -189.39999999999998-13.8Q-183.2-11.8 -176.99999999999997-11.8L-176.99999999999997-11.8Q-170.09999999999997-11.8 -166.79999999999998-13.85Q-163.49999999999997-15.9 -163.49999999999997-19.3L-163.49999999999997-19.3Q-163.49999999999997-21.8 -165.45-23.45Q-167.39999999999998-25.1 -170.45-26.1Q-173.49999999999997-27.1 -178.7-28.3L-178.7-28.3Q-186.7-30.2 -191.79999999999998-32.1Q-196.89999999999998-34 -200.54999999999998-38.2Q-204.2-42.4 -204.2-49.4L-204.2-49.4Q-204.2-55.5 -200.89999999999998-60.45Q-197.59999999999997-65.4 -190.95-68.3Q-184.29999999999998-71.2 -174.7-71.2L-174.7-71.2Q-167.99999999999997-71.2 -161.59999999999997-69.6Q-155.2-68 -150.39999999999998-65L-150.39999999999998-65L-155.39999999999998-52.7Q-165.09999999999997-58.2 -174.79999999999998-58.2L-174.79999999999998-58.2Q-181.59999999999997-58.2 -184.84999999999997-56Q-188.09999999999997-53.8 -188.09999999999997-50.2L-188.09999999999997-50.2Q-188.09999999999997-46.6 -184.34999999999997-44.85Q-180.59999999999997-43.1 -172.89999999999998-41.4L-172.89999999999998-41.4Q-164.89999999999998-39.5 -159.79999999999998-37.6Q-154.7-35.7 -151.04999999999998-31.6Q-147.39999999999998-27.5 -147.39999999999998-20.5L-147.39999999999998-20.5Q-147.39999999999998-14.5 -150.74999999999997-9.55Q-154.09999999999997-4.6 -160.79999999999998-1.7Q-167.49999999999997 1.2 -177.09999999999997 1.2L-177.09999999999997 1.2ZM-93.49999999999997 0L-93.49999999999997-56.8L-115.89999999999996-56.8L-115.89999999999996-70L-54.89999999999997-70L-54.89999999999997-56.8L-77.29999999999997-56.8L-77.29999999999997 0L-93.49999999999997 0ZM-13.099999999999964 0.8Q-17.199999999999964 0.8 -19.999999999999964-2Q-22.799999999999965-4.8 -22.799999999999965-9L-22.799999999999965-9Q-22.799999999999965-13.3 -19.999999999999964-15.95Q-17.199999999999964-18.6 -13.099999999999964-18.6L-13.099999999999964-18.6Q-8.999999999999964-18.6 -6.199999999999964-15.95Q-3.399999999999963-13.3 -3.399999999999963-9L-3.399999999999963-9Q-3.399999999999963-4.8 -6.199999999999964-2Q-8.999999999999964 0.8 -13.099999999999964 0.8L-13.099999999999964 0.8Z"></path><path text="2021" text-anchor="start" font-size="100" letter-spacing="15" side="left" offset="0" dx="0" dy="0" space="preserve" href="" font-family="Montserrat" font-scale="contain" transform="matrix(0.2886892855167389, 0, 0, 0.2886892855167389, 327.6457214355469, 235.05372619628906)" x="0" y="0" fill="#705a13" font-weight="700" data-fl-textpath="" id="_UrcS0J6aX5KfkFpaF2wfk" d="M 26.1-13.2L 56.2-13.2L 56.2 0L 3.3 0L 3.3-10.5L 30.3-36Q 34.6-40.1  36.1-43.05Q 37.6-46  37.6-48.9L 37.6-48.9Q 37.6-53.1  34.75-55.35Q 31.9-57.6  26.4-57.6L 26.4-57.6Q 21.8-57.6  18.1-55.85Q 14.4-54.1  11.9-50.6L 11.9-50.6L 0.1-58.2Q 4.2-64.3  11.4-67.75Q 18.6-71.2  27.9-71.2L 27.9-71.2Q 35.7-71.2  41.55-68.65Q 47.4-66.1  50.65-61.45Q 53.9-56.8  53.9-50.5L 53.9-50.5Q 53.9-44.8  51.5-39.8Q 49.1-34.8  42.2-28.4L 42.2-28.4L 26.1-13.2ZM 107.69999999999999 1.2Q 99 1.2  92.19999999999999-3.1Q 85.39999999999999-7.4  81.55-15.55Q 77.7-23.7  77.7-35L 77.7-35Q 77.7-46.3  81.55-54.45Q 85.39999999999999-62.6  92.19999999999999-66.9Q 99-71.2  107.69999999999999-71.2L 107.69999999999999-71.2Q 116.4-71.2  123.19999999999999-66.9Q 130-62.6  133.85-54.45Q 137.7-46.3  137.7-35L 137.7-35Q 137.7-23.7  133.85-15.55Q 130-7.4  123.19999999999999-3.1Q 116.4 1.2  107.69999999999999 1.2L 107.69999999999999 1.2ZM 107.69999999999999-12.5Q 114.1-12.5  117.75-18Q 121.4-23.5  121.4-35L 121.4-35Q 121.4-46.5  117.75-52Q 114.1-57.5  107.69999999999999-57.5L 107.69999999999999-57.5Q 101.4-57.5  97.75-52Q 94.1-46.5  94.1-35L 94.1-35Q 94.1-23.5  97.75-18Q 101.4-12.5  107.69999999999999-12.5L 107.69999999999999-12.5ZM 182.20000000000002-13.2L 212.3-13.2L 212.3 0L 159.40000000000003 0L 159.40000000000003-10.5L 186.40000000000003-36Q 190.70000000000002-40.1  192.20000000000002-43.05Q 193.70000000000002-46  193.70000000000002-48.9L 193.70000000000002-48.9Q 193.70000000000002-53.1  190.85000000000002-55.35Q 188.00000000000003-57.6  182.50000000000003-57.6L 182.50000000000003-57.6Q 177.90000000000003-57.6  174.20000000000002-55.85Q 170.50000000000003-54.1  168.00000000000003-50.6L 168.00000000000003-50.6L 156.20000000000002-58.2Q 160.3-64.3  167.50000000000003-67.75Q 174.70000000000002-71.2  184.00000000000003-71.2L 184.00000000000003-71.2Q 191.8-71.2  197.65000000000003-68.65Q 203.50000000000003-66.1  206.75000000000003-61.45Q 210.00000000000003-56.8  210.00000000000003-50.5L 210.00000000000003-50.5Q 210.00000000000003-44.8  207.60000000000002-39.8Q 205.20000000000002-34.8  198.3-28.4L 198.3-28.4L 182.20000000000002-13.2ZM 230.8-70L 261-70L 261 0L 244.8 0L 244.8-57L 230.8-57L 230.8-70Z"></path></svg>
