<svg version="1.1" viewBox="0.0 0.0 660.0 371.0" fill="none" stroke="none" stroke-linecap="square" stroke-miterlimit="10" width="660" height="371" xmlns:xlink="http://www.w3.org/1999/xlink" xmlns="http://www.w3.org/2000/svg"><path fill="#ffffff" d="M0 0L660.0 0L660.0 371.0L0 371.0L0 0Z" fill-rule="nonzero"/><path fill="#4285f4" d="M330.0 54.916668C394.44962 54.916668 451.5695 96.416664 471.4855 157.7119L436.11414 169.20476C421.1771 123.23334 378.33722 92.10833 330.0 92.10833Z" fill-rule="nonzero"/><path fill="#34a853" d="M209.64523 116.24048C237.63614 77.71432 282.37906 54.916668 330.0 54.916668L330.0 92.10833C294.28427 92.10833 260.7271 109.20657 239.73393 138.1012Z" fill-rule="nonzero"/><path fill="#fbbc04" d="M242.55714 324.0381C210.63708 300.8468 189.23708 265.92517 183.0649 226.95557C176.89272 187.98596 186.45395 148.16055 209.64523 116.24048L239.73393 138.1012C222.34047 162.04124 215.16954 191.9103 219.79868 221.13751C224.42781 250.36472 240.47781 276.55594 264.41785 293.9494Z" fill-rule="nonzero"/><path fill="#ea4335" d="M471.4855 157.7119C491.40155 219.00714 469.5837 286.15555 417.44284 324.0381C365.302 361.92062 294.698 361.92062 242.55714 324.0381L264.41785 293.9494C303.5235 322.3613 356.4765 322.3613 395.58215 293.9494C434.68777 265.5375 451.05115 215.1762 436.11414 169.20476Z" fill-rule="nonzero"/><path fill="#1a1a1a" d="M19.4875 73.258865L19.4875 64.665115L23.3 64.665115Q24.45625 64.665115 25.05 64.89949Q25.64375 65.133865 26.003124 65.727615Q26.3625 66.30574 26.3625 67.008865Q26.3625 67.93074 25.76875 68.55574Q25.175 69.18074 23.940624 69.352615Q24.39375 69.571365 24.628124 69.77449Q25.128124 70.227615 25.565624 70.915115L27.065624 73.258865L25.628124 73.258865L24.503124 71.477615Q24.003124 70.696365 23.675 70.290115Q23.3625 69.883865 23.096874 69.727615Q22.846874 69.55574 22.58125 69.477615Q22.39375 69.446365 21.95625 69.446365L20.628124 69.446365L20.628124 73.258865L19.4875 73.258865ZM20.628124 68.46199L23.08125 68.46199Q23.846874 68.46199 24.284374 68.30574Q24.7375 68.133865 24.95625 67.790115Q25.190624 67.43074 25.190624 67.008865Q25.190624 66.39949 24.7375 66.008865Q24.3 65.61824 23.346874 65.61824L20.628124 65.61824L20.628124 68.46199ZM32.596874 71.258865L33.690624 71.383865Q33.440624 72.33699 32.7375 72.86824Q32.034374 73.39949 30.95625 73.39949Q29.596874 73.39949 28.784374 72.55574Q27.9875 71.71199 27.9875 70.196365Q27.9875 68.633865 28.8 67.77449Q29.6125 66.89949 30.89375 66.89949Q32.14375 66.89949 32.925 67.74324Q33.721874 68.58699 33.721874 70.133865Q33.721874 70.227615 33.721874 70.415115L29.08125 70.415115Q29.14375 71.446365 29.659374 71.99324Q30.175 72.52449 30.95625 72.52449Q31.534374 72.52449 31.940624 72.227615Q32.3625 71.915115 32.596874 71.258865ZM29.14375 69.55574L32.6125 69.55574Q32.55 68.758865 32.221874 68.36824Q31.70625 67.758865 30.909374 67.758865Q30.175 67.758865 29.675 68.24324Q29.190624 68.727615 29.14375 69.55574ZM34.784374 73.258865L34.784374 72.39949L38.753124 67.852615Q38.065624 67.883865 37.55 67.883865L35.01875 67.883865L35.01875 67.040115L40.1125 67.040115L40.1125 67.727615L36.7375 71.68074L36.08125 72.39949Q36.8 72.352615 37.409374 72.352615L40.3 72.352615L40.3 73.258865L34.784374 73.258865ZM44.596874 71.258865L45.690624 71.383865Q45.440624 72.33699 44.7375 72.86824Q44.034374 73.39949 42.95625 73.39949Q41.596874 73.39949 40.784374 72.55574Q39.9875 71.71199 39.9875 70.196365Q39.9875 68.633865 40.8 67.77449Q41.6125 66.89949 42.89375 66.89949Q44.14375 66.89949 44.925 67.74324Q45.721874 68.58699 45.721874 70.133865Q45.721874 70.227615 45.721874 70.415115L41.08125 70.415115Q41.14375 71.446365 41.659374 71.99324Q42.175 72.52449 42.95625 72.52449Q43.534374 72.52449 43.940624 72.227615Q44.3625 71.915115 44.596874 71.258865ZM41.14375 69.55574L44.6125 69.55574Q44.55 68.758865 44.221874 68.36824Q43.70625 67.758865 42.909374 67.758865Q42.175 67.758865 41.675 68.24324Q41.190624 68.727615 41.14375 69.55574ZM47.33125 73.258865L47.33125 67.040115L48.284374 67.040115L48.284374 67.977615Q48.64375 67.321365 48.940624 67.11824Q49.253124 66.89949 49.628124 66.89949Q50.159374 66.89949 50.70625 67.227615L50.346874 68.21199Q49.95625 67.977615 49.58125 67.977615Q49.221874 67.977615 48.940624 68.196365Q48.675 68.39949 48.565624 68.77449Q48.378124 69.33699 48.378124 69.99324L48.378124 73.258865L47.33125 73.258865ZM53.065624 73.258865L50.70625 67.040115L51.815624 67.040115L53.159374 70.758865Q53.3625 71.36824 53.55 72.008865Q53.690624 71.52449 53.940624 70.83699L55.33125 67.040115L56.409374 67.040115L54.05 73.258865L53.065624 73.258865ZM60.409374 72.49324Q59.815624 72.99324 59.26875 73.196365Q58.7375 73.39949 58.1125 73.39949Q57.08125 73.39949 56.534374 72.89949Q55.9875 72.39949 55.9875 71.61824Q55.9875 71.165115 56.190624 70.790115Q56.39375 70.39949 56.7375 70.18074Q57.08125 69.946365 57.503124 69.83699Q57.8 69.74324 58.440624 69.665115Q59.70625 69.52449 60.315624 69.30574Q60.315624 69.08699 60.315624 69.040115Q60.315624 68.383865 60.01875 68.11824Q59.6125 67.77449 58.815624 67.77449Q58.08125 67.77449 57.721874 68.040115Q57.3625 68.290115 57.190624 68.946365L56.159374 68.80574Q56.3 68.14949 56.628124 67.74324Q56.95625 67.33699 57.565624 67.11824Q58.175 66.89949 58.971874 66.89949Q59.76875 66.89949 60.26875 67.08699Q60.76875 67.27449 61.003124 67.55574Q61.2375 67.83699 61.33125 68.27449Q61.378124 68.540115 61.378124 69.24324L61.378124 70.64949Q61.378124 72.11824 61.440624 72.508865Q61.51875 72.89949 61.721874 73.258865L60.6125 73.258865Q60.45625 72.93074 60.409374 72.49324ZM60.315624 70.133865Q59.7375 70.36824 58.596874 70.540115Q57.940624 70.633865 57.675 70.758865Q57.409374 70.86824 57.253124 71.08699Q57.1125 71.30574 57.1125 71.58699Q57.1125 72.008865 57.425 72.290115Q57.753124 72.571365 58.3625 72.571365Q58.971874 72.571365 59.440624 72.30574Q59.925 72.040115 60.14375 71.571365Q60.315624 71.21199 60.315624 70.52449L60.315624 70.133865Z" fill-rule="nonzero"/><path fill="#9e9e9e" d="M23.01875 90.258865L21.971874 90.258865L21.971874 83.540115Q21.58125 83.89949 20.95625 84.27449Q20.346874 84.633865 19.8625 84.80574L19.8625 83.790115Q20.7375 83.36824 21.39375 82.790115Q22.065624 82.196365 22.346874 81.633865L23.01875 81.633865L23.01875 90.258865ZM26.05 88.008865L27.159374 87.915115Q27.284374 88.727615 27.721874 89.133865Q28.175 89.540115 28.815624 89.540115Q29.565624 89.540115 30.096874 88.96199Q30.628124 88.383865 30.628124 87.446365Q30.628124 86.540115 30.1125 86.02449Q29.6125 85.49324 28.784374 85.49324Q28.284374 85.49324 27.8625 85.727615Q27.45625 85.96199 27.221874 86.321365L26.2375 86.196365L27.065624 81.790115L31.346874 81.790115L31.346874 82.790115L27.909374 82.790115L27.45625 85.102615Q28.221874 84.55574 29.065624 84.55574Q30.190624 84.55574 30.95625 85.33699Q31.7375 86.11824 31.7375 87.352615Q31.7375 88.508865 31.065624 89.36824Q30.2375 90.39949 28.815624 90.39949Q27.64375 90.39949 26.89375 89.74324Q26.159374 89.08699 26.05 88.008865ZM33.6125 90.258865L33.6125 89.05574L34.815624 89.05574L34.815624 90.258865Q34.815624 90.915115 34.58125 91.321365Q34.346874 91.74324 33.846874 91.96199L33.55 91.508865Q33.878124 91.36824 34.034374 91.071365Q34.190624 90.790115 34.221874 90.258865L33.6125 90.258865ZM36.05 86.02449Q36.05 84.49324 36.3625 83.571365Q36.675 82.633865 37.284374 82.133865Q37.909374 81.633865 38.846874 81.633865Q39.534374 81.633865 40.05 81.915115Q40.58125 82.196365 40.925 82.727615Q41.26875 83.24324 41.45625 83.99324Q41.64375 84.74324 41.64375 86.02449Q41.64375 87.540115 41.33125 88.46199Q41.034374 89.383865 40.409374 89.89949Q39.8 90.39949 38.846874 90.39949Q37.6125 90.39949 36.89375 89.508865Q36.05 88.446365 36.05 86.02449ZM37.128124 86.02449Q37.128124 88.133865 37.628124 88.83699Q38.128124 89.540115 38.846874 89.540115Q39.58125 89.540115 40.065624 88.83699Q40.565624 88.133865 40.565624 86.02449Q40.565624 83.89949 40.065624 83.21199Q39.58125 82.508865 38.83125 82.508865Q38.1125 82.508865 37.675 83.11824Q37.128124 83.89949 37.128124 86.02449ZM43.253124 83.727615Q43.253124 82.80574 43.70625 82.165115Q44.175 81.52449 45.05 81.52449Q45.8625 81.52449 46.39375 82.102615Q46.925 82.68074 46.925 83.790115Q46.925 84.883865 46.378124 85.477615Q45.846874 86.05574 45.065624 86.05574Q44.284374 86.05574 43.76875 85.477615Q43.253124 84.89949 43.253124 83.727615ZM45.08125 82.24324Q44.690624 82.24324 44.425 82.58699Q44.175 82.93074 44.175 83.83699Q44.175 84.665115 44.425 85.008865Q44.690624 85.33699 45.08125 85.33699Q45.4875 85.33699 45.7375 84.99324Q46.003124 84.64949 46.003124 83.758865Q46.003124 82.915115 45.7375 82.58699Q45.471874 82.24324 45.08125 82.24324ZM45.08125 90.571365L49.784374 81.52449L50.64375 81.52449L45.95625 90.571365L45.08125 90.571365ZM48.8 88.24324Q48.8 87.321365 49.253124 86.68074Q49.721874 86.040115 50.6125 86.040115Q51.425 86.040115 51.95625 86.61824Q52.4875 87.18074 52.4875 88.30574Q52.4875 89.39949 51.940624 89.99324Q51.409374 90.571365 50.6125 90.571365Q49.846874 90.571365 49.315624 89.99324Q48.8 89.415115 48.8 88.24324ZM50.64375 86.758865Q50.2375 86.758865 49.971874 87.102615Q49.721874 87.446365 49.721874 88.352615Q49.721874 89.165115 49.9875 89.508865Q50.253124 89.852615 50.64375 89.852615Q51.034374 89.852615 51.3 89.508865Q51.565624 89.165115 51.565624 88.258865Q51.565624 87.43074 51.3 87.102615Q51.034374 86.758865 50.64375 86.758865Z" fill-rule="nonzero"/><path stroke="#757575" stroke-width="1.0" stroke-linecap="butt" d="M18.55 77.758865L175.23334 77.758865L265.8383 77.758865" fill-rule="nonzero"/><path fill="#9e9e9e" d="M267.8383 77.758865C267.8383 76.6543 266.94284 75.758865 265.8383 75.758865C264.7337 75.758865 263.8383 76.6543 263.8383 77.758865C263.8383 78.863434 264.7337 79.758865 265.8383 79.758865C266.94284 79.758865 267.8383 78.863434 267.8383 77.758865" fill-rule="nonzero"/><path fill="#1a1a1a" d="M19.471874 221.29196L19.471874 212.69821L22.721874 212.69821Q23.565624 212.69821 24.01875 212.77634Q24.659374 212.88571 25.08125 213.18259Q25.51875 213.47946 25.76875 214.01071Q26.034374 214.54196 26.034374 215.18259Q26.034374 216.27634 25.33125 217.04196Q24.64375 217.79196 22.815624 217.79196L20.6125 217.79196L20.6125 221.29196L19.471874 221.29196ZM20.6125 216.79196L22.83125 216.79196Q23.940624 216.79196 24.39375 216.38571Q24.8625 215.96384 24.8625 215.21384Q24.8625 214.68259 24.58125 214.30759Q24.315624 213.91696 23.878124 213.79196Q23.58125 213.71384 22.815624 213.71384L20.6125 213.71384L20.6125 216.79196ZM27.33125 221.29196L27.33125 215.07321L28.284374 215.07321L28.284374 216.01071Q28.64375 215.35446 28.940624 215.15134Q29.253124 214.93259 29.628124 214.93259Q30.159374 214.93259 30.70625 215.26071L30.346874 216.24509Q29.95625 216.01071 29.58125 216.01071Q29.221874 216.01071 28.940624 216.22946Q28.675 216.43259 28.565624 216.80759Q28.378124 217.37009 28.378124 218.02634L28.378124 221.29196L27.33125 221.29196ZM35.409374 220.52634Q34.815624 221.02634 34.26875 221.22946Q33.7375 221.43259 33.1125 221.43259Q32.08125 221.43259 31.534374 220.93259Q30.9875 220.43259 30.9875 219.65134Q30.9875 219.19821 31.190624 218.82321Q31.39375 218.43259 31.7375 218.21384Q32.08125 217.97946 32.503124 217.87009Q32.8 217.77634 33.440624 217.69821Q34.70625 217.55759 35.315624 217.33884Q35.315624 217.12009 35.315624 217.07321Q35.315624 216.41696 35.01875 216.15134Q34.6125 215.80759 33.815624 215.80759Q33.08125 215.80759 32.721874 216.07321Q32.3625 216.32321 32.190624 216.97946L31.159374 216.83884Q31.3 216.18259 31.628124 215.77634Q31.95625 215.37009 32.565624 215.15134Q33.175 214.93259 33.971874 214.93259Q34.76875 214.93259 35.26875 215.12009Q35.76875 215.30759 36.003124 215.58884Q36.2375 215.87009 36.33125 216.30759Q36.378124 216.57321 36.378124 217.27634L36.378124 218.68259Q36.378124 220.15134 36.440624 220.54196Q36.51875 220.93259 36.721874 221.29196L35.6125 221.29196Q35.45625 220.96384 35.409374 220.52634ZM35.315624 218.16696Q34.7375 218.40134 33.596874 218.57321Q32.940624 218.66696 32.675 218.79196Q32.409374 218.90134 32.253124 219.12009Q32.1125 219.33884 32.1125 219.62009Q32.1125 220.04196 32.425 220.32321Q32.753124 220.60446 33.3625 220.60446Q33.971874 220.60446 34.440624 220.33884Q34.925 220.07321 35.14375 219.60446Q35.315624 219.24509 35.315624 218.55759L35.315624 218.16696ZM40.065624 221.29196L37.70625 215.07321L38.815624 215.07321L40.159374 218.79196Q40.3625 219.40134 40.55 220.04196Q40.690624 219.55759 40.940624 218.87009L42.33125 215.07321L43.409374 215.07321L41.05 221.29196L40.065624 221.29196ZM43.346874 213.91696L43.346874 212.69821L44.409374 212.69821L44.409374 213.91696L43.346874 213.91696ZM43.346874 221.29196L43.346874 215.07321L44.409374 215.07321L44.409374 221.29196L43.346874 221.29196ZM50.378124 221.29196L50.378124 220.51071Q49.784374 221.43259 48.64375 221.43259Q47.89375 221.43259 47.26875 221.02634Q46.64375 220.60446 46.3 219.87009Q45.95625 219.13571 45.95625 218.18259Q45.95625 217.26071 46.26875 216.49509Q46.58125 215.72946 47.20625 215.33884Q47.83125 214.93259 48.596874 214.93259Q49.159374 214.93259 49.596874 215.16696Q50.034374 215.40134 50.315624 215.77634L50.315624 212.69821L51.3625 212.69821L51.3625 221.29196L50.378124 221.29196ZM47.05 218.18259Q47.05 219.38571 47.55 219.97946Q48.05 220.55759 48.7375 220.55759Q49.425 220.55759 49.909374 219.99509Q50.39375 219.43259 50.39375 218.27634Q50.39375 216.99509 49.89375 216.40134Q49.409374 215.80759 48.690624 215.80759Q47.9875 215.80759 47.51875 216.38571Q47.05 216.94821 47.05 218.18259ZM57.596874 219.29196L58.690624 219.41696Q58.440624 220.37009 57.7375 220.90134Q57.034374 221.43259 55.95625 221.43259Q54.596874 221.43259 53.784374 220.58884Q52.9875 219.74509 52.9875 218.22946Q52.9875 216.66696 53.8 215.80759Q54.6125 214.93259 55.89375 214.93259Q57.14375 214.93259 57.925 215.77634Q58.721874 216.62009 58.721874 218.16696Q58.721874 218.26071 58.721874 218.44821L54.08125 218.44821Q54.14375 219.47946 54.659374 220.02634Q55.175 220.55759 55.95625 220.55759Q56.534374 220.55759 56.940624 220.26071Q57.3625 219.94821 57.596874 219.29196ZM54.14375 217.58884L57.6125 217.58884Q57.55 216.79196 57.221874 216.40134Q56.70625 215.79196 55.909374 215.79196Q55.175 215.79196 54.675 216.27634Q54.190624 216.76071 54.14375 217.58884ZM60.315624 221.29196L60.315624 212.69821L61.378124 212.69821L61.378124 221.29196L60.315624 221.29196ZM63.346874 221.29196L63.346874 215.07321L64.28438 215.07321L64.28438 215.94821Q64.97188 214.93259 66.26875 214.93259Q66.83125 214.93259 67.3 215.13571Q67.78438 215.33884 68.01875 215.66696Q68.25313 215.99509 68.34688 216.43259Q68.39375 216.72946 68.39375 217.46384L68.39375 221.29196L67.34688 221.29196L67.34688 217.51071Q67.34688 216.85446 67.22188 216.54196Q67.09688 216.22946 66.78438 216.04196Q66.47188 215.83884 66.05 215.83884Q65.37813 215.83884 64.87813 216.27634Q64.39375 216.69821 64.39375 217.88571L64.39375 221.29196L63.346874 221.29196ZM74.59688 219.29196L75.69063 219.41696Q75.44063 220.37009 74.7375 220.90134Q74.03438 221.43259 72.95625 221.43259Q71.59688 221.43259 70.78438 220.58884Q69.9875 219.74509 69.9875 218.22946Q69.9875 216.66696 70.8 215.80759Q71.6125 214.93259 72.89375 214.93259Q74.14375 214.93259 74.925 215.77634Q75.72188 216.62009 75.72188 218.16696Q75.72188 218.26071 75.72188 218.44821L71.08125 218.44821Q71.14375 219.47946 71.65938 220.02634Q72.175 220.55759 72.95625 220.55759Q73.53438 220.55759 73.94063 220.26071Q74.3625 219.94821 74.59688 219.29196ZM71.14375 217.58884L74.6125 217.58884Q74.55 216.79196 74.22188 216.40134Q73.70625 215.79196 72.90938 215.79196Q72.175 215.79196 71.675 216.27634Q71.19063 216.76071 71.14375 217.58884ZM72.26875 214.29196L73.05 212.65134L74.44063 212.65134L73.14375 214.29196L72.26875 214.29196ZM80.34688 221.29196L80.34688 215.07321L81.28438 215.07321L81.28438 215.94821Q81.97188 214.93259 83.26875 214.93259Q83.83125 214.93259 84.3 215.13571Q84.78438 215.33884 85.01875 215.66696Q85.25313 215.99509 85.34688 216.43259Q85.39375 216.72946 85.39375 217.46384L85.39375 221.29196L84.34688 221.29196L84.34688 217.51071Q84.34688 216.85446 84.22188 216.54196Q84.09688 216.22946 83.78438 216.04196Q83.47188 215.83884 83.05 215.83884Q82.37813 215.83884 81.87813 216.27634Q81.39375 216.69821 81.39375 217.88571L81.39375 221.29196L80.34688 221.29196ZM91.40938 220.52634Q90.81563 221.02634 90.26875 221.22946Q89.7375 221.43259 89.1125 221.43259Q88.08125 221.43259 87.53438 220.93259Q86.9875 220.43259 86.9875 219.65134Q86.9875 219.19821 87.19063 218.82321Q87.39375 218.43259 87.7375 218.21384Q88.08125 217.97946 88.50313 217.87009Q88.8 217.77634 89.44063 217.69821Q90.70625 217.55759 91.31563 217.33884Q91.31563 217.12009 91.31563 217.07321Q91.31563 216.41696 91.01875 216.15134Q90.6125 215.80759 89.81563 215.80759Q89.08125 215.80759 88.72188 216.07321Q88.3625 216.32321 88.19063 216.97946L87.15938 216.83884Q87.3 216.18259 87.62813 215.77634Q87.95625 215.37009 88.56563 215.15134Q89.175 214.93259 89.97188 214.93259Q90.76875 214.93259 91.26875 215.12009Q91.76875 215.30759 92.00313 215.58884Q92.2375 215.87009 92.33125 216.30759Q92.37813 216.57321 92.37813 217.27634L92.37813 218.68259Q92.37813 220.15134 92.44063 220.54196Q92.51875 220.93259 92.72188 221.29196L91.6125 221.29196Q91.45625 220.96384 91.40938 220.52634ZM91.31563 218.16696Q90.7375 218.40134 89.59688 218.57321Q88.94063 218.66696 88.675 218.79196Q88.40938 218.90134 88.25313 219.12009Q88.1125 219.33884 88.1125 219.62009Q88.1125 220.04196 88.425 220.32321Q88.75313 220.60446 89.3625 220.60446Q89.97188 220.60446 90.44063 220.33884Q90.925 220.07321 91.14375 219.60446Q91.31563 219.24509 91.31563 218.55759L91.31563 218.16696ZM89.25313 214.29196L90.03438 212.65134L91.425 212.65134L90.12813 214.29196L89.25313 214.29196ZM94.34688 221.29196L94.34688 212.69821L95.40938 212.69821L95.40938 217.60446L97.89375 215.07321L99.26875 215.07321L96.87813 217.37009L99.50313 221.29196L98.20625 221.29196L96.14375 218.10446L95.40938 218.82321L95.40938 221.29196L94.34688 221.29196ZM100.31563 221.29196L100.31563 212.69821L101.37813 212.69821L101.37813 221.29196L100.31563 221.29196ZM107.40938 220.52634Q106.81563 221.02634 106.26875 221.22946Q105.7375 221.43259 105.1125 221.43259Q104.08125 221.43259 103.53438 220.93259Q102.9875 220.43259 102.9875 219.65134Q102.9875 219.19821 103.19063 218.82321Q103.39375 218.43259 103.7375 218.21384Q104.08125 217.97946 104.50313 217.87009Q104.8 217.77634 105.44063 217.69821Q106.70625 217.55759 107.31563 217.33884Q107.31563 217.12009 107.31563 217.07321Q107.31563 216.41696 107.01875 216.15134Q106.6125 215.80759 105.81563 215.80759Q105.08125 215.80759 104.72188 216.07321Q104.3625 216.32321 104.19063 216.97946L103.15938 216.83884Q103.3 216.18259 103.62813 215.77634Q103.95625 215.37009 104.56563 215.15134Q105.175 214.93259 105.97188 214.93259Q106.76875 214.93259 107.26875 215.12009Q107.76875 215.30759 108.00313 215.58884Q108.2375 215.87009 108.33125 216.30759Q108.37813 216.57321 108.37813 217.27634L108.37813 218.68259Q108.37813 220.15134 108.44063 220.54196Q108.51875 220.93259 108.72188 221.29196L107.6125 221.29196Q107.45625 220.96384 107.40938 220.52634ZM107.31563 218.16696Q106.7375 218.40134 105.59688 218.57321Q104.94063 218.66696 104.675 218.79196Q104.40938 218.90134 104.25313 219.12009Q104.1125 219.33884 104.1125 219.62009Q104.1125 220.04196 104.425 220.32321Q104.75313 220.60446 105.3625 220.60446Q105.97188 220.60446 106.44063 220.33884Q106.925 220.07321 107.14375 219.60446Q107.31563 219.24509 107.31563 218.55759L107.31563 218.16696ZM114.37813 221.29196L114.37813 220.51071Q113.78438 221.43259 112.64375 221.43259Q111.89375 221.43259 111.26875 221.02634Q110.64375 220.60446 110.3 219.87009Q109.95625 219.13571 109.95625 218.18259Q109.95625 217.26071 110.26875 216.49509Q110.58125 215.72946 111.20625 215.33884Q111.83125 214.93259 112.59688 214.93259Q113.15938 214.93259 113.59688 215.16696Q114.03438 215.40134 114.31563 215.77634L114.31563 212.69821L115.3625 212.69821L115.3625 221.29196L114.37813 221.29196ZM111.05 218.18259Q111.05 219.38571 111.55 219.97946Q112.05 220.55759 112.7375 220.55759Q113.425 220.55759 113.90938 219.99509Q114.39375 219.43259 114.39375 218.27634Q114.39375 216.99509 113.89375 216.40134Q113.40938 215.80759 112.69063 215.80759Q111.9875 215.80759 111.51875 216.38571Q111.05 216.94821 111.05 218.18259ZM117.3 223.68259L117.175 222.69821Q117.51875 222.79196 117.78438 222.79196Q118.12813 222.79196 118.33125 222.66696Q118.55 222.55759 118.69063 222.35446Q118.78438 222.18259 119.01875 221.55759Q119.03438 221.47946 119.1125 221.30759L116.7375 215.07321L117.87813 215.07321L119.175 218.66696Q119.425 219.35446 119.62813 220.12009Q119.81563 219.38571 120.06563 218.69821L121.39375 215.07321L122.44063 215.07321L120.08125 221.40134Q119.69063 222.41696 119.4875 222.80759Q119.20625 223.33884 118.83125 223.57321Q118.47188 223.82321 117.97188 223.82321Q117.675 223.82321 117.3 223.68259Z" fill-rule="nonzero"/><path fill="#9e9e9e" d="M24.596874 237.27634L24.596874 238.29196L18.909374 238.29196Q18.909374 237.91696 19.034374 237.55759Q19.253124 236.97946 19.721874 236.41696Q20.20625 235.85446 21.1125 235.12009Q22.51875 233.96384 23.003124 233.29196Q23.503124 232.62009 23.503124 232.02634Q23.503124 231.40134 23.05 230.97946Q22.596874 230.54196 21.878124 230.54196Q21.1125 230.54196 20.659374 230.99509Q20.20625 231.44821 20.190624 232.26071L19.1125 232.15134Q19.221874 230.93259 19.940624 230.30759Q20.675 229.66696 21.909374 229.66696Q23.14375 229.66696 23.8625 230.35446Q24.58125 231.04196 24.58125 232.05759Q24.58125 232.57321 24.3625 233.07321Q24.159374 233.55759 23.659374 234.12009Q23.175 234.66696 22.05 235.62009Q21.096874 236.41696 20.815624 236.71384Q20.55 236.99509 20.378124 237.27634L24.596874 237.27634ZM26.05 236.04196L27.159374 235.94821Q27.284374 236.76071 27.721874 237.16696Q28.175 237.57321 28.815624 237.57321Q29.565624 237.57321 30.096874 236.99509Q30.628124 236.41696 30.628124 235.47946Q30.628124 234.57321 30.1125 234.05759Q29.6125 233.52634 28.784374 233.52634Q28.284374 233.52634 27.8625 233.76071Q27.45625 233.99509 27.221874 234.35446L26.2375 234.22946L27.065624 229.82321L31.346874 229.82321L31.346874 230.82321L27.909374 230.82321L27.45625 233.13571Q28.221874 232.58884 29.065624 232.58884Q30.190624 232.58884 30.95625 233.37009Q31.7375 234.15134 31.7375 235.38571Q31.7375 236.54196 31.065624 237.40134Q30.2375 238.43259 28.815624 238.43259Q27.64375 238.43259 26.89375 237.77634Q26.159374 237.12009 26.05 236.04196ZM33.6125 238.29196L33.6125 237.08884L34.815624 237.08884L34.815624 238.29196Q34.815624 238.94821 34.58125 239.35446Q34.346874 239.77634 33.846874 239.99509L33.55 239.54196Q33.878124 239.40134 34.034374 239.10446Q34.190624 238.82321 34.221874 238.29196L33.6125 238.29196ZM36.05 234.05759Q36.05 232.52634 36.3625 231.60446Q36.675 230.66696 37.284374 230.16696Q37.909374 229.66696 38.846874 229.66696Q39.534374 229.66696 40.05 229.94821Q40.58125 230.22946 40.925 230.76071Q41.26875 231.27634 41.45625 232.02634Q41.64375 232.77634 41.64375 234.05759Q41.64375 235.57321 41.33125 236.49509Q41.034374 237.41696 40.409374 237.93259Q39.8 238.43259 38.846874 238.43259Q37.6125 238.43259 36.89375 237.54196Q36.05 236.47946 36.05 234.05759ZM37.128124 234.05759Q37.128124 236.16696 37.628124 236.87009Q38.128124 237.57321 38.846874 237.57321Q39.58125 237.57321 40.065624 236.87009Q40.565624 236.16696 40.565624 234.05759Q40.565624 231.93259 40.065624 231.24509Q39.58125 230.54196 38.83125 230.54196Q38.1125 230.54196 37.675 231.15134Q37.128124 231.93259 37.128124 234.05759ZM43.253124 231.76071Q43.253124 230.83884 43.70625 230.19821Q44.175 229.55759 45.05 229.55759Q45.8625 229.55759 46.39375 230.13571Q46.925 230.71384 46.925 231.82321Q46.925 232.91696 46.378124 233.51071Q45.846874 234.08884 45.065624 234.08884Q44.284374 234.08884 43.76875 233.51071Q43.253124 232.93259 43.253124 231.76071ZM45.08125 230.27634Q44.690624 230.27634 44.425 230.62009Q44.175 230.96384 44.175 231.87009Q44.175 232.69821 44.425 233.04196Q44.690624 233.37009 45.08125 233.37009Q45.4875 233.37009 45.7375 233.02634Q46.003124 232.68259 46.003124 231.79196Q46.003124 230.94821 45.7375 230.62009Q45.471874 230.27634 45.08125 230.27634ZM45.08125 238.60446L49.784374 229.55759L50.64375 229.55759L45.95625 238.60446L45.08125 238.60446ZM48.8 236.27634Q48.8 235.35446 49.253124 234.71384Q49.721874 234.07321 50.6125 234.07321Q51.425 234.07321 51.95625 234.65134Q52.4875 235.21384 52.4875 236.33884Q52.4875 237.43259 51.940624 238.02634Q51.409374 238.60446 50.6125 238.60446Q49.846874 238.60446 49.315624 238.02634Q48.8 237.44821 48.8 236.27634ZM50.64375 234.79196Q50.2375 234.79196 49.971874 235.13571Q49.721874 235.47946 49.721874 236.38571Q49.721874 237.19821 49.9875 237.54196Q50.253124 237.88571 50.64375 237.88571Q51.034374 237.88571 51.3 237.54196Q51.565624 237.19821 51.565624 236.29196Q51.565624 235.46384 51.3 235.13571Q51.034374 234.79196 50.64375 234.79196Z" fill-rule="nonzero"/><path stroke="#757575" stroke-width="1.0" stroke-linecap="butt" d="M18.55 225.79196L175.23334 225.79196L190.41165 225.79196" fill-rule="nonzero"/><path fill="#9e9e9e" d="M192.41165 225.79196C192.41165 224.6874 191.51622 223.79196 190.41165 223.79196C189.30708 223.79196 188.41165 224.6874 188.41165 225.79196C188.41165 226.89653 189.30708 227.79196 190.41165 227.79196C191.51622 227.79196 192.41165 226.89653 192.41165 225.79196" fill-rule="nonzero"/><path fill="#1a1a1a" d="M516.0125 76.25256L517.15314 76.25256L517.15314 81.22131Q517.15314 82.51819 516.85626 83.28381Q516.5594 84.03381 515.79376 84.51819Q515.02814 84.98694 513.79376 84.98694Q512.59064 84.98694 511.8094 84.58069Q511.04376 84.15881 510.71564 83.37756Q510.3875 82.58069 510.3875 81.22131L510.3875 76.25256L511.52814 76.25256L511.52814 81.20569Q511.52814 82.33069 511.73126 82.86194Q511.95 83.39319 512.45 83.69006Q512.96564 83.97131 513.7 83.97131Q514.95 83.97131 515.48126 83.40881Q516.0125 82.83069 516.0125 81.20569L516.0125 76.25256ZM513.04376 75.72131L513.825 74.08069L515.21564 74.08069L513.91876 75.72131L513.04376 75.72131ZM520.96564 84.84631L518.60626 78.62756L519.71564 78.62756L521.0594 82.34631Q521.2625 82.95569 521.45 83.59631Q521.59064 83.11194 521.84064 82.42444L523.23126 78.62756L524.3094 78.62756L521.95 84.84631L520.96564 84.84631ZM528.4969 82.84631L529.59064 82.97131Q529.34064 83.92444 528.6375 84.45569Q527.9344 84.98694 526.85626 84.98694Q525.4969 84.98694 524.6844 84.14319Q523.8875 83.29944 523.8875 81.78381Q523.8875 80.22131 524.7 79.36194Q525.5125 78.48694 526.79376 78.48694Q528.04376 78.48694 528.825 79.33069Q529.6219 80.17444 529.6219 81.72131Q529.6219 81.81506 529.6219 82.00256L524.98126 82.00256Q525.04376 83.03381 525.5594 83.58069Q526.075 84.11194 526.85626 84.11194Q527.4344 84.11194 527.84064 83.81506Q528.2625 83.50256 528.4969 82.84631ZM525.04376 81.14319L528.5125 81.14319Q528.45 80.34631 528.1219 79.95569Q527.60626 79.34631 526.8094 79.34631Q526.075 79.34631 525.575 79.83069Q525.09064 80.31506 525.04376 81.14319ZM526.8719 77.20569L527.5125 76.20569L528.7 76.20569L527.3875 77.84631L526.2625 77.84631L524.9969 76.20569L526.2 76.20569L526.8719 77.20569ZM531.23126 84.84631L531.23126 78.62756L532.1844 78.62756L532.1844 79.56506Q532.54376 78.90881 532.84064 78.70569Q533.15314 78.48694 533.52814 78.48694Q534.0594 78.48694 534.60626 78.81506L534.2469 79.79944Q533.85626 79.56506 533.48126 79.56506Q533.1219 79.56506 532.84064 79.78381Q532.575 79.98694 532.46564 80.36194Q532.27814 80.92444 532.27814 81.58069L532.27814 84.84631L531.23126 84.84631ZM540.2625 87.37756Q539.3875 86.26819 538.77814 84.79944Q538.1844 83.31506 538.1844 81.73694Q538.1844 80.34631 538.6219 79.06506Q539.15314 77.58069 540.2625 76.11194L541.0125 76.11194Q540.3094 77.33069 540.075 77.84631Q539.71564 78.65881 539.5125 79.53381Q539.2625 80.62756 539.2625 81.73694Q539.2625 84.56506 541.0125 87.37756L540.2625 87.37756ZM546.27814 84.84631L546.27814 84.06506Q545.6844 84.98694 544.54376 84.98694Q543.79376 84.98694 543.16876 84.58069Q542.54376 84.15881 542.2 83.42444Q541.85626 82.69006 541.85626 81.73694Q541.85626 80.81506 542.16876 80.04944Q542.48126 79.28381 543.10626 78.89319Q543.73126 78.48694 544.4969 78.48694Q545.0594 78.48694 545.4969 78.72131Q545.9344 78.95569 546.21564 79.33069L546.21564 76.25256L547.2625 76.25256L547.2625 84.84631L546.27814 84.84631ZM542.95 81.73694Q542.95 82.94006 543.45 83.53381Q543.95 84.11194 544.6375 84.11194Q545.325 84.11194 545.8094 83.54944Q546.29376 82.98694 546.29376 81.83069Q546.29376 80.54944 545.79376 79.95569Q545.3094 79.36194 544.59064 79.36194Q543.8875 79.36194 543.41876 79.94006Q542.95 80.50256 542.95 81.73694ZM548.85626 81.73694Q548.85626 80.00256 549.8094 79.17444Q550.60626 78.48694 551.7625 78.48694Q553.04376 78.48694 553.85626 79.33069Q554.6844 80.15881 554.6844 81.64319Q554.6844 82.84631 554.325 83.53381Q553.96564 84.22131 553.2625 84.61194Q552.575 84.98694 551.7625 84.98694Q550.46564 84.98694 549.65314 84.15881Q548.85626 83.31506 548.85626 81.73694ZM549.9344 81.73694Q549.9344 82.92444 550.45 83.51819Q550.98126 84.11194 551.7625 84.11194Q552.5594 84.11194 553.075 83.51819Q553.59064 82.92444 553.59064 81.70569Q553.59064 80.54944 553.0594 79.95569Q552.54376 79.36194 551.7625 79.36194Q550.98126 79.36194 550.45 79.95569Q549.9344 80.53381 549.9344 81.73694ZM560.21564 84.84631L559.23126 84.84631L559.23126 76.25256L560.29376 76.25256L560.29376 79.31506Q560.96564 78.48694 561.9969 78.48694Q562.575 78.48694 563.075 78.72131Q563.59064 78.94006 563.91876 79.36194Q564.2625 79.78381 564.45 80.37756Q564.6375 80.97131 564.6375 81.64319Q564.6375 83.23694 563.84064 84.11194Q563.04376 84.98694 561.95 84.98694Q560.84064 84.98694 560.21564 84.06506L560.21564 84.84631ZM560.2 81.69006Q560.2 82.79944 560.5125 83.29944Q561.0125 84.11194 561.85626 84.11194Q562.54376 84.11194 563.04376 83.51819Q563.5594 82.92444 563.5594 81.72131Q563.5594 80.50256 563.075 79.92444Q562.59064 79.34631 561.90314 79.34631Q561.21564 79.34631 560.7 79.95569Q560.2 80.54944 560.2 81.69006ZM570.325 84.84631L570.325 83.92444Q569.59064 84.98694 568.34064 84.98694Q567.79376 84.98694 567.3094 84.78381Q566.84064 84.56506 566.60626 84.25256Q566.3719 83.92444 566.27814 83.45569Q566.21564 83.15881 566.21564 82.47131L566.21564 78.62756L567.27814 78.62756L567.27814 82.08069Q567.27814 82.89319 567.34064 83.19006Q567.4344 83.59631 567.7469 83.84631Q568.075 84.08069 568.5594 84.08069Q569.02814 84.08069 569.4344 83.84631Q569.85626 83.59631 570.02814 83.17444Q570.21564 82.75256 570.21564 81.95569L570.21564 78.62756L571.2625 78.62756L571.2625 84.84631L570.325 84.84631ZM577.27814 84.84631L577.27814 84.06506Q576.6844 84.98694 575.54376 84.98694Q574.79376 84.98694 574.16876 84.58069Q573.54376 84.15881 573.2 83.42444Q572.85626 82.69006 572.85626 81.73694Q572.85626 80.81506 573.16876 80.04944Q573.48126 79.28381 574.10626 78.89319Q574.73126 78.48694 575.4969 78.48694Q576.0594 78.48694 576.4969 78.72131Q576.9344 78.95569 577.21564 79.33069L577.21564 76.25256L578.2625 76.25256L578.2625 84.84631L577.27814 84.84631ZM573.95 81.73694Q573.95 82.94006 574.45 83.53381Q574.95 84.11194 575.6375 84.11194Q576.325 84.11194 576.8094 83.54944Q577.29376 82.98694 577.29376 81.83069Q577.29376 80.54944 576.79376 79.95569Q576.3094 79.36194 575.59064 79.36194Q574.8875 79.36194 574.41876 79.94006Q573.95 80.50256 573.95 81.73694ZM579.85626 81.73694Q579.85626 80.00256 580.8094 79.17444Q581.60626 78.48694 582.7625 78.48694Q584.04376 78.48694 584.85626 79.33069Q585.6844 80.15881 585.6844 81.64319Q585.6844 82.84631 585.325 83.53381Q584.96564 84.22131 584.2625 84.61194Q583.575 84.98694 582.7625 84.98694Q581.46564 84.98694 580.65314 84.15881Q579.85626 83.31506 579.85626 81.73694ZM580.9344 81.73694Q580.9344 82.92444 581.45 83.51819Q581.98126 84.11194 582.7625 84.11194Q583.5594 84.11194 584.075 83.51819Q584.59064 82.92444 584.59064 81.70569Q584.59064 80.54944 584.0594 79.95569Q583.54376 79.36194 582.7625 79.36194Q581.98126 79.36194 581.45 79.95569Q580.9344 80.53381 580.9344 81.73694ZM591.325 84.84631L591.325 83.92444Q590.59064 84.98694 589.34064 84.98694Q588.79376 84.98694 588.3094 84.78381Q587.84064 84.56506 587.60626 84.25256Q587.3719 83.92444 587.27814 83.45569Q587.21564 83.15881 587.21564 82.47131L587.21564 78.62756L588.27814 78.62756L588.27814 82.08069Q588.27814 82.89319 588.34064 83.19006Q588.4344 83.59631 588.7469 83.84631Q589.075 84.08069 589.5594 84.08069Q590.02814 84.08069 590.4344 83.84631Q590.85626 83.59631 591.02814 83.17444Q591.21564 82.75256 591.21564 81.95569L591.21564 78.62756L592.2625 78.62756L592.2625 84.84631L591.325 84.84631ZM598.3094 82.56506L599.34064 82.70569Q599.16876 83.76819 598.46564 84.37756Q597.7625 84.98694 596.7469 84.98694Q595.46564 84.98694 594.6844 84.15881Q593.91876 83.31506 593.91876 81.75256Q593.91876 80.75256 594.2469 80.00256Q594.59064 79.23694 595.2625 78.86194Q595.95 78.48694 596.7625 78.48694Q597.7625 78.48694 598.40314 79.00256Q599.0594 79.50256 599.2469 80.45569L598.21564 80.61194Q598.075 79.98694 597.7 79.67444Q597.325 79.34631 596.79376 79.34631Q595.9969 79.34631 595.4969 79.92444Q594.9969 80.48694 594.9969 81.72131Q594.9969 82.98694 595.48126 83.54944Q595.96564 84.11194 596.73126 84.11194Q597.35626 84.11194 597.7625 83.73694Q598.1844 83.36194 598.3094 82.56506ZM600.2469 84.84631L600.2469 78.62756L601.1844 78.62756L601.1844 79.50256Q601.8719 78.48694 603.16876 78.48694Q603.73126 78.48694 604.2 78.69006Q604.6844 78.89319 604.91876 79.22131Q605.15314 79.54944 605.2469 79.98694Q605.29376 80.28381 605.29376 81.01819L605.29376 84.84631L604.2469 84.84631L604.2469 81.06506Q604.2469 80.40881 604.1219 80.09631Q603.9969 79.78381 603.6844 79.59631Q603.3719 79.39319 602.95 79.39319Q602.27814 79.39319 601.77814 79.83069Q601.29376 80.25256 601.29376 81.44006L601.29376 84.84631L600.2469 84.84631ZM611.3094 84.08069Q610.71564 84.58069 610.16876 84.78381Q609.6375 84.98694 609.0125 84.98694Q607.98126 84.98694 607.4344 84.48694Q606.8875 83.98694 606.8875 83.20569Q606.8875 82.75256 607.09064 82.37756Q607.29376 81.98694 607.6375 81.76819Q607.98126 81.53381 608.40314 81.42444Q608.7 81.33069 609.34064 81.25256Q610.60626 81.11194 611.21564 80.89319Q611.21564 80.67444 611.21564 80.62756Q611.21564 79.97131 610.91876 79.70569Q610.5125 79.36194 609.71564 79.36194Q608.98126 79.36194 608.6219 79.62756Q608.2625 79.87756 608.09064 80.53381L607.0594 80.39319Q607.2 79.73694 607.52814 79.33069Q607.85626 78.92444 608.46564 78.70569Q609.075 78.48694 609.8719 78.48694Q610.66876 78.48694 611.16876 78.67444Q611.66876 78.86194 611.90314 79.14319Q612.1375 79.42444 612.23126 79.86194Q612.27814 80.12756 612.27814 80.83069L612.27814 82.23694Q612.27814 83.70569 612.34064 84.09631Q612.41876 84.48694 612.6219 84.84631L611.5125 84.84631Q611.35626 84.51819 611.3094 84.08069ZM611.21564 81.72131Q610.6375 81.95569 609.4969 82.12756Q608.84064 82.22131 608.575 82.34631Q608.3094 82.45569 608.15314 82.67444Q608.0125 82.89319 608.0125 83.17444Q608.0125 83.59631 608.325 83.87756Q608.65314 84.15881 609.2625 84.15881Q609.8719 84.15881 610.34064 83.89319Q610.825 83.62756 611.04376 83.15881Q611.21564 82.79944 611.21564 82.11194L611.21564 81.72131ZM616.6844 84.84631L616.6844 83.98694L620.65314 79.44006Q619.96564 79.47131 619.45 79.47131L616.91876 79.47131L616.91876 78.62756L622.0125 78.62756L622.0125 79.31506L618.6375 83.26819L617.98126 83.98694Q618.7 83.94006 619.3094 83.94006L622.2 83.94006L622.2 84.84631L616.6844 84.84631ZM622.2469 77.47131L622.2469 76.25256L623.3094 76.25256L623.3094 77.47131L622.2469 77.47131ZM622.2469 84.84631L622.2469 78.62756L623.3094 78.62756L623.3094 84.84631L622.2469 84.84631ZM624.825 82.98694L625.85626 82.83069Q625.95 83.45569 626.34064 83.78381Q626.7469 84.11194 627.48126 84.11194Q628.2 84.11194 628.54376 83.83069Q628.90314 83.53381 628.90314 83.12756Q628.90314 82.76819 628.59064 82.56506Q628.3719 82.42444 627.5125 82.20569Q626.35626 81.90881 625.90314 81.70569Q625.46564 81.48694 625.23126 81.11194Q624.9969 80.73694 624.9969 80.26819Q624.9969 79.86194 625.1844 79.50256Q625.3719 79.14319 625.7 78.90881Q625.95 78.73694 626.3719 78.61194Q626.79376 78.48694 627.29376 78.48694Q628.0125 78.48694 628.5594 78.70569Q629.1219 78.90881 629.3875 79.26819Q629.65314 79.62756 629.7469 80.22131L628.71564 80.36194Q628.65314 79.89319 628.3094 79.62756Q627.98126 79.34631 627.35626 79.34631Q626.6375 79.34631 626.325 79.59631Q626.0125 79.83069 626.0125 80.15881Q626.0125 80.36194 626.1375 80.51819Q626.27814 80.69006 626.54376 80.79944Q626.7 80.86194 627.48126 81.06506Q628.60626 81.37756 629.04376 81.56506Q629.48126 81.75256 629.73126 82.11194Q629.98126 82.47131 629.98126 83.01819Q629.98126 83.54944 629.66876 84.01819Q629.3719 84.47131 628.79376 84.73694Q628.21564 84.98694 627.48126 84.98694Q626.2625 84.98694 625.6219 84.48694Q624.9969 83.97131 624.825 82.98694ZM632.2469 84.84631L632.2469 76.25256L633.3094 76.25256L633.3094 81.15881L635.79376 78.62756L637.16876 78.62756L634.77814 80.92444L637.40314 84.84631L636.10626 84.84631L634.04376 81.65881L633.3094 82.37756L633.3094 84.84631L632.2469 84.84631ZM638.9344 87.37756L638.1844 87.37756Q639.9344 84.56506 639.9344 81.73694Q639.9344 80.64319 639.6844 79.54944Q639.48126 78.67444 639.1219 77.86194Q638.8875 77.34631 638.1844 76.11194L638.9344 76.11194Q640.02814 77.58069 640.5594 79.06506Q641.0125 80.34631 641.0125 81.73694Q641.0125 83.31506 640.40314 84.79944Q639.79376 86.26819 638.9344 87.37756Z" fill-rule="nonzero"/><path fill="#9e9e9e" d="M612.4969 100.83069L612.4969 101.84631L606.8094 101.84631Q606.8094 101.47131 606.9344 101.11194Q607.15314 100.53381 607.6219 99.97131Q608.10626 99.40881 609.0125 98.67444Q610.41876 97.51819 610.90314 96.84631Q611.40314 96.17444 611.40314 95.58069Q611.40314 94.95569 610.95 94.53381Q610.4969 94.09631 609.77814 94.09631Q609.0125 94.09631 608.5594 94.54944Q608.10626 95.00256 608.09064 95.81506L607.0125 95.70569Q607.1219 94.48694 607.84064 93.86194Q608.575 93.22131 609.8094 93.22131Q611.04376 93.22131 611.7625 93.90881Q612.48126 94.59631 612.48126 95.61194Q612.48126 96.12756 612.2625 96.62756Q612.0594 97.11194 611.5594 97.67444Q611.075 98.22131 609.95 99.17444Q608.9969 99.97131 608.71564 100.26819Q608.45 100.54944 608.27814 100.83069L612.4969 100.83069ZM613.95 97.61194Q613.95 96.08069 614.2625 95.15881Q614.575 94.22131 615.1844 93.72131Q615.8094 93.22131 616.7469 93.22131Q617.4344 93.22131 617.95 93.50256Q618.48126 93.78381 618.825 94.31506Q619.16876 94.83069 619.35626 95.58069Q619.54376 96.33069 619.54376 97.61194Q619.54376 99.12756 619.23126 100.04944Q618.9344 100.97131 618.3094 101.48694Q617.7 101.98694 616.7469 101.98694Q615.5125 101.98694 614.79376 101.09631Q613.95 100.03381 613.95 97.61194ZM615.02814 97.61194Q615.02814 99.72131 615.52814 100.42444Q616.02814 101.12756 616.7469 101.12756Q617.48126 101.12756 617.96564 100.42444Q618.46564 99.72131 618.46564 97.61194Q618.46564 95.48694 617.96564 94.79944Q617.48126 94.09631 616.73126 94.09631Q616.0125 94.09631 615.575 94.70569Q615.02814 95.48694 615.02814 97.61194ZM621.5125 101.84631L621.5125 100.64319L622.71564 100.64319L622.71564 101.84631Q622.71564 102.50256 622.48126 102.90881Q622.2469 103.33069 621.7469 103.54944L621.45 103.09631Q621.77814 102.95569 621.9344 102.65881Q622.09064 102.37756 622.1219 101.84631L621.5125 101.84631ZM623.95 97.61194Q623.95 96.08069 624.2625 95.15881Q624.575 94.22131 625.1844 93.72131Q625.8094 93.22131 626.7469 93.22131Q627.4344 93.22131 627.95 93.50256Q628.48126 93.78381 628.825 94.31506Q629.16876 94.83069 629.35626 95.58069Q629.54376 96.33069 629.54376 97.61194Q629.54376 99.12756 629.23126 100.04944Q628.9344 100.97131 628.3094 101.48694Q627.7 101.98694 626.7469 101.98694Q625.5125 101.98694 624.79376 101.09631Q623.95 100.03381 623.95 97.61194ZM625.02814 97.61194Q625.02814 99.72131 625.52814 100.42444Q626.02814 101.12756 626.7469 101.12756Q627.48126 101.12756 627.96564 100.42444Q628.46564 99.72131 628.46564 97.61194Q628.46564 95.48694 627.96564 94.79944Q627.48126 94.09631 626.73126 94.09631Q626.0125 94.09631 625.575 94.70569Q625.02814 95.48694 625.02814 97.61194ZM631.15314 95.31506Q631.15314 94.39319 631.60626 93.75256Q632.075 93.11194 632.95 93.11194Q633.7625 93.11194 634.29376 93.69006Q634.825 94.26819 634.825 95.37756Q634.825 96.47131 634.27814 97.06506Q633.7469 97.64319 632.96564 97.64319Q632.1844 97.64319 631.66876 97.06506Q631.15314 96.48694 631.15314 95.31506ZM632.98126 93.83069Q632.59064 93.83069 632.325 94.17444Q632.075 94.51819 632.075 95.42444Q632.075 96.25256 632.325 96.59631Q632.59064 96.92444 632.98126 96.92444Q633.3875 96.92444 633.6375 96.58069Q633.90314 96.23694 633.90314 95.34631Q633.90314 94.50256 633.6375 94.17444Q633.3719 93.83069 632.98126 93.83069ZM632.98126 102.15881L637.6844 93.11194L638.54376 93.11194L633.85626 102.15881L632.98126 102.15881ZM636.7 99.83069Q636.7 98.90881 637.15314 98.26819Q637.6219 97.62756 638.5125 97.62756Q639.325 97.62756 639.85626 98.20569Q640.3875 98.76819 640.3875 99.89319Q640.3875 100.98694 639.84064 101.58069Q639.3094 102.15881 638.5125 102.15881Q637.7469 102.15881 637.21564 101.58069Q636.7 101.00256 636.7 99.83069ZM638.54376 98.34631Q638.1375 98.34631 637.8719 98.69006Q637.6219 99.03381 637.6219 99.94006Q637.6219 100.75256 637.8875 101.09631Q638.15314 101.44006 638.54376 101.44006Q638.9344 101.44006 639.2 101.09631Q639.46564 100.75256 639.46564 99.84631Q639.46564 99.01819 639.2 98.69006Q638.9344 98.34631 638.54376 98.34631Z" fill-rule="nonzero"/><path stroke="#757575" stroke-width="1.0" stroke-linecap="butt" d="M641.45 89.34631L484.76666 89.34631L413.0707 89.34631" fill-rule="nonzero"/><path fill="#9e9e9e" d="M415.0707 89.34631C415.0707 88.24174 414.1753 87.34631 413.0707 87.34631C411.96613 87.34631 411.0707 88.24174 411.0707 89.34631C411.0707 90.45088 411.96613 91.34631 413.0707 91.34631C414.1753 91.34631 415.0707 90.45088 415.0707 89.34631" fill-rule="nonzero"/><path fill="#1a1a1a" d="M593.3719 313.52036L593.3719 304.9266L594.52814 304.9266L599.04376 311.6766L599.04376 304.9266L600.1375 304.9266L600.1375 313.52036L598.96564 313.52036L594.45 306.77036L594.45 313.52036L593.3719 313.52036ZM606.3094 312.75473Q605.71564 313.25473 605.16876 313.45786Q604.6375 313.66098 604.0125 313.66098Q602.98126 313.66098 602.4344 313.16098Q601.8875 312.66098 601.8875 311.87973Q601.8875 311.4266 602.09064 311.0516Q602.29376 310.66098 602.6375 310.44223Q602.98126 310.20786 603.40314 310.09848Q603.7 310.00473 604.34064 309.9266Q605.60626 309.78598 606.21564 309.56723Q606.21564 309.34848 606.21564 309.3016Q606.21564 308.64536 605.91876 308.37973Q605.5125 308.03598 604.71564 308.03598Q603.98126 308.03598 603.6219 308.3016Q603.2625 308.5516 603.09064 309.20786L602.0594 309.06723Q602.2 308.41098 602.52814 308.00473Q602.85626 307.59848 603.46564 307.37973Q604.075 307.16098 604.8719 307.16098Q605.66876 307.16098 606.16876 307.34848Q606.66876 307.53598 606.90314 307.81723Q607.1375 308.09848 607.23126 308.53598Q607.27814 308.8016 607.27814 309.50473L607.27814 310.91098Q607.27814 312.37973 607.34064 312.77036Q607.41876 313.16098 607.6219 313.52036L606.5125 313.52036Q606.35626 313.19223 606.3094 312.75473ZM606.21564 310.39536Q605.6375 310.62973 604.4969 310.8016Q603.84064 310.89536 603.575 311.02036Q603.3094 311.12973 603.15314 311.34848Q603.0125 311.56723 603.0125 311.84848Q603.0125 312.27036 603.325 312.5516Q603.65314 312.83286 604.2625 312.83286Q604.8719 312.83286 605.34064 312.56723Q605.825 312.3016 606.04376 311.83286Q606.21564 311.47348 606.21564 310.78598L606.21564 310.39536ZM612.2469 313.52036L612.2469 307.3016L613.1844 307.3016L613.1844 308.1766Q613.48126 307.70786 613.96564 307.44223Q614.45 307.16098 615.075 307.16098Q615.7625 307.16098 616.2 307.44223Q616.65314 307.72348 616.825 308.2391Q617.575 307.16098 618.7469 307.16098Q619.6844 307.16098 620.16876 307.6766Q620.66876 308.1766 620.66876 309.25473L620.66876 313.52036L619.6219 313.52036L619.6219 309.59848Q619.6219 308.97348 619.5125 308.69223Q619.41876 308.41098 619.15314 308.2391Q618.8875 308.06723 618.5125 308.06723Q617.85626 308.06723 617.41876 308.50473Q616.9969 308.94223 616.9969 309.91098L616.9969 313.52036L615.9344 313.52036L615.9344 309.47348Q615.9344 308.77036 615.66876 308.4266Q615.41876 308.06723 614.84064 308.06723Q614.3875 308.06723 614.0125 308.3016Q613.6375 308.53598 613.46564 308.9891Q613.29376 309.44223 613.29376 310.28598L613.29376 313.52036L612.2469 313.52036ZM622.6844 313.52036L622.6844 312.66098L626.65314 308.1141Q625.96564 308.14536 625.45 308.14536L622.91876 308.14536L622.91876 307.3016L628.0125 307.3016L628.0125 307.9891L624.6375 311.94223L623.98126 312.66098Q624.7 312.6141 625.3094 312.6141L628.2 312.6141L628.2 313.52036L622.6844 313.52036ZM632.27814 313.52036L632.27814 312.7391Q631.6844 313.66098 630.54376 313.66098Q629.79376 313.66098 629.16876 313.25473Q628.54376 312.83286 628.2 312.09848Q627.85626 311.3641 627.85626 310.41098Q627.85626 309.4891 628.16876 308.72348Q628.48126 307.95786 629.10626 307.56723Q629.73126 307.16098 630.4969 307.16098Q631.0594 307.16098 631.4969 307.39536Q631.9344 307.62973 632.21564 308.00473L632.21564 304.9266L633.2625 304.9266L633.2625 313.52036L632.27814 313.52036ZM628.95 310.41098Q628.95 311.6141 629.45 312.20786Q629.95 312.78598 630.6375 312.78598Q631.325 312.78598 631.8094 312.22348Q632.29376 311.66098 632.29376 310.50473Q632.29376 309.22348 631.79376 308.62973Q631.3094 308.03598 630.59064 308.03598Q629.8875 308.03598 629.41876 308.6141Q628.95 309.1766 628.95 310.41098ZM639.325 313.52036L639.325 312.59848Q638.59064 313.66098 637.34064 313.66098Q636.79376 313.66098 636.3094 313.45786Q635.84064 313.2391 635.60626 312.9266Q635.3719 312.59848 635.27814 312.12973Q635.21564 311.83286 635.21564 311.14536L635.21564 307.3016L636.27814 307.3016L636.27814 310.75473Q636.27814 311.56723 636.34064 311.8641Q636.4344 312.27036 636.7469 312.52036Q637.075 312.75473 637.5594 312.75473Q638.02814 312.75473 638.4344 312.52036Q638.85626 312.27036 639.02814 311.84848Q639.21564 311.4266 639.21564 310.62973L639.21564 307.3016L640.2625 307.3016L640.2625 313.52036L639.325 313.52036Z" fill-rule="nonzero"/><path fill="#9e9e9e" d="M610.325 330.52036L610.325 328.45786L606.60626 328.45786L606.60626 327.4891L610.52814 321.9266L611.3875 321.9266L611.3875 327.4891L612.54376 327.4891L612.54376 328.45786L611.3875 328.45786L611.3875 330.52036L610.325 330.52036ZM610.325 327.4891L610.325 323.62973L607.6375 327.4891L610.325 327.4891ZM613.95 326.28598Q613.95 324.75473 614.2625 323.83286Q614.575 322.89536 615.1844 322.39536Q615.8094 321.89536 616.7469 321.89536Q617.4344 321.89536 617.95 322.1766Q618.48126 322.45786 618.825 322.9891Q619.16876 323.50473 619.35626 324.25473Q619.54376 325.00473 619.54376 326.28598Q619.54376 327.8016 619.23126 328.72348Q618.9344 329.64536 618.3094 330.16098Q617.7 330.66098 616.7469 330.66098Q615.5125 330.66098 614.79376 329.77036Q613.95 328.70786 613.95 326.28598ZM615.02814 326.28598Q615.02814 328.39536 615.52814 329.09848Q616.02814 329.8016 616.7469 329.8016Q617.48126 329.8016 617.96564 329.09848Q618.46564 328.39536 618.46564 326.28598Q618.46564 324.16098 617.96564 323.47348Q617.48126 322.77036 616.73126 322.77036Q616.0125 322.77036 615.575 323.37973Q615.02814 324.16098 615.02814 326.28598ZM621.5125 330.52036L621.5125 329.31723L622.71564 329.31723L622.71564 330.52036Q622.71564 331.1766 622.48126 331.58286Q622.2469 332.00473 621.7469 332.22348L621.45 331.77036Q621.77814 331.62973 621.9344 331.33286Q622.09064 331.0516 622.1219 330.52036L621.5125 330.52036ZM623.95 326.28598Q623.95 324.75473 624.2625 323.83286Q624.575 322.89536 625.1844 322.39536Q625.8094 321.89536 626.7469 321.89536Q627.4344 321.89536 627.95 322.1766Q628.48126 322.45786 628.825 322.9891Q629.16876 323.50473 629.35626 324.25473Q629.54376 325.00473 629.54376 326.28598Q629.54376 327.8016 629.23126 328.72348Q628.9344 329.64536 628.3094 330.16098Q627.7 330.66098 626.7469 330.66098Q625.5125 330.66098 624.79376 329.77036Q623.95 328.70786 623.95 326.28598ZM625.02814 326.28598Q625.02814 328.39536 625.52814 329.09848Q626.02814 329.8016 626.7469 329.8016Q627.48126 329.8016 627.96564 329.09848Q628.46564 328.39536 628.46564 326.28598Q628.46564 324.16098 627.96564 323.47348Q627.48126 322.77036 626.73126 322.77036Q626.0125 322.77036 625.575 323.37973Q625.02814 324.16098 625.02814 326.28598ZM631.15314 323.9891Q631.15314 323.06723 631.60626 322.4266Q632.075 321.78598 632.95 321.78598Q633.7625 321.78598 634.29376 322.3641Q634.825 322.94223 634.825 324.0516Q634.825 325.14536 634.27814 325.7391Q633.7469 326.31723 632.96564 326.31723Q632.1844 326.31723 631.66876 325.7391Q631.15314 325.16098 631.15314 323.9891ZM632.98126 322.50473Q632.59064 322.50473 632.325 322.84848Q632.075 323.19223 632.075 324.09848Q632.075 324.9266 632.325 325.27036Q632.59064 325.59848 632.98126 325.59848Q633.3875 325.59848 633.6375 325.25473Q633.90314 324.91098 633.90314 324.02036Q633.90314 323.1766 633.6375 322.84848Q633.3719 322.50473 632.98126 322.50473ZM632.98126 330.83286L637.6844 321.78598L638.54376 321.78598L633.85626 330.83286L632.98126 330.83286ZM636.7 328.50473Q636.7 327.58286 637.15314 326.94223Q637.6219 326.3016 638.5125 326.3016Q639.325 326.3016 639.85626 326.87973Q640.3875 327.44223 640.3875 328.56723Q640.3875 329.66098 639.84064 330.25473Q639.3094 330.83286 638.5125 330.83286Q637.7469 330.83286 637.21564 330.25473Q636.7 329.6766 636.7 328.50473ZM638.54376 327.02036Q638.1375 327.02036 637.8719 327.3641Q637.6219 327.70786 637.6219 328.6141Q637.6219 329.4266 637.8875 329.77036Q638.15314 330.1141 638.54376 330.1141Q638.9344 330.1141 639.2 329.77036Q639.46564 329.4266 639.46564 328.52036Q639.46564 327.69223 639.2 327.3641Q638.9344 327.02036 638.54376 327.02036Z" fill-rule="nonzero"/><path stroke="#757575" stroke-width="1.0" stroke-linecap="butt" d="M641.45 318.02036L484.76666 318.02036L413.0707 318.02036" fill-rule="nonzero"/><path fill="#9e9e9e" d="M415.0707 318.02036C415.0707 316.9158 414.1753 316.02036 413.0707 316.02036C411.96613 316.02036 411.0707 316.9158 411.0707 318.02036C411.0707 319.12494 411.96613 320.02036 413.0707 320.02036C414.1753 320.02036 415.0707 319.12494 415.0707 318.02036" fill-rule="nonzero"/><path fill="#757575" d="M20.096874 37.55L20.096874 23.2375L25.4875 23.2375Q26.925 23.2375 27.675 23.3625Q28.721874 23.55 29.440624 24.05Q30.159374 24.534374 30.58125 25.425Q31.01875 26.315624 31.01875 27.378124Q31.01875 29.20625 29.846874 30.471874Q28.690624 31.721874 25.659374 31.721874L21.9875 31.721874L21.9875 37.55L20.096874 37.55ZM21.9875 30.034374L25.690624 30.034374Q27.51875 30.034374 28.284374 29.3625Q29.065624 28.675 29.065624 27.425Q29.065624 26.534374 28.6125 25.89375Q28.159374 25.253124 27.425 25.05Q26.940624 24.925 25.64375 24.925L21.9875 24.925L21.9875 30.034374ZM32.83125 37.55L32.83125 23.2375L34.58125 23.2375L34.58125 37.55L32.83125 37.55ZM43.64375 36.26875Q42.659374 37.096874 41.753124 37.440624Q40.846874 37.784374 39.815624 37.784374Q38.1125 37.784374 37.190624 36.95625Q36.26875 36.1125 36.26875 34.815624Q36.26875 34.05 36.6125 33.425Q36.971874 32.8 37.534374 32.425Q38.096874 32.034374 38.8 31.83125Q39.315624 31.70625 40.3625 31.565624Q42.4875 31.315624 43.4875 30.971874Q43.503124 30.6125 43.503124 30.503124Q43.503124 29.440624 43.003124 28.9875Q42.33125 28.39375 41.003124 28.39375Q39.753124 28.39375 39.159374 28.83125Q38.58125 29.26875 38.3 30.378124L36.58125 30.14375Q36.815624 29.034374 37.346874 28.3625Q37.878124 27.675 38.89375 27.315624Q39.909374 26.940624 41.253124 26.940624Q42.58125 26.940624 43.409374 27.253124Q44.2375 27.565624 44.628124 28.05Q45.01875 28.51875 45.175 29.2375Q45.26875 29.690624 45.26875 30.8625L45.26875 33.20625Q45.26875 35.659374 45.378124 36.315624Q45.4875 36.95625 45.83125 37.55L43.9875 37.55Q43.721874 37.003124 43.64375 36.26875ZM43.4875 32.346874Q42.534374 32.7375 40.6125 33.003124Q39.534374 33.159374 39.08125 33.3625Q38.64375 33.55 38.39375 33.925Q38.14375 34.3 38.14375 34.76875Q38.14375 35.471874 38.675 35.940624Q39.20625 36.409374 40.2375 36.409374Q41.253124 36.409374 42.034374 35.971874Q42.83125 35.51875 43.20625 34.753124Q43.4875 34.14375 43.4875 32.9875L43.4875 32.346874ZM40.08125 25.89375L41.378124 23.159374L43.675 23.159374L41.534374 25.89375L40.08125 25.89375ZM47.8625 37.55L47.8625 27.175L49.45625 27.175L49.45625 28.659374Q50.596874 26.940624 52.753124 26.940624Q53.690624 26.940624 54.471874 27.284374Q55.26875 27.6125 55.659374 28.159374Q56.05 28.70625 56.20625 29.45625Q56.3 29.95625 56.3 31.175L56.3 37.55L54.534374 37.55L54.534374 31.2375Q54.534374 30.159374 54.33125 29.628124Q54.128124 29.096874 53.596874 28.784374Q53.08125 28.471874 52.378124 28.471874Q51.253124 28.471874 50.440624 29.190624Q49.628124 29.89375 49.628124 31.878124L49.628124 37.55L47.8625 37.55ZM57.221874 32.3625Q57.221874 29.4875 58.815624 28.096874Q60.159374 26.940624 62.08125 26.940624Q64.22188 26.940624 65.56563 28.346874Q66.925 29.753124 66.925 32.221874Q66.925 34.221874 66.33125 35.378124Q65.7375 36.51875 64.58125 37.159374Q63.440624 37.784374 62.08125 37.784374Q59.89375 37.784374 58.55 36.39375Q57.221874 34.9875 57.221874 32.3625ZM59.01875 32.3625Q59.01875 34.3625 59.878124 35.346874Q60.753124 36.33125 62.08125 36.33125Q63.39375 36.33125 64.25313 35.346874Q65.12813 34.346874 65.12813 32.3Q65.12813 30.378124 64.25313 29.39375Q63.378124 28.39375 62.08125 28.39375Q60.753124 28.39375 59.878124 29.39375Q59.01875 30.378124 59.01875 32.3625ZM71.75313 37.55L67.8 27.175L69.65938 27.175L71.89375 33.39375Q72.25313 34.39375 72.55 35.471874Q72.78438 34.659374 73.20625 33.503124L75.50313 27.175L77.31563 27.175L73.39375 37.55L71.75313 37.55ZM84.64375 36.26875Q83.65938 37.096874 82.75313 37.440624Q81.84688 37.784374 80.81563 37.784374Q79.1125 37.784374 78.19063 36.95625Q77.26875 36.1125 77.26875 34.815624Q77.26875 34.05 77.6125 33.425Q77.97188 32.8 78.53438 32.425Q79.09688 32.034374 79.8 31.83125Q80.31563 31.70625 81.3625 31.565624Q83.4875 31.315624 84.4875 30.971874Q84.50313 30.6125 84.50313 30.503124Q84.50313 29.440624 84.00313 28.9875Q83.33125 28.39375 82.00313 28.39375Q80.75313 28.39375 80.15938 28.83125Q79.58125 29.26875 79.3 30.378124L77.58125 30.14375Q77.81563 29.034374 78.34688 28.3625Q78.87813 27.675 79.89375 27.315624Q80.90938 26.940624 82.25313 26.940624Q83.58125 26.940624 84.40938 27.253124Q85.2375 27.565624 85.62813 28.05Q86.01875 28.51875 86.175 29.2375Q86.26875 29.690624 86.26875 30.8625L86.26875 33.20625Q86.26875 35.659374 86.37813 36.315624Q86.4875 36.95625 86.83125 37.55L84.9875 37.55Q84.72188 37.003124 84.64375 36.26875ZM84.4875 32.346874Q83.53438 32.7375 81.6125 33.003124Q80.53438 33.159374 80.08125 33.3625Q79.64375 33.55 79.39375 33.925Q79.14375 34.3 79.14375 34.76875Q79.14375 35.471874 79.675 35.940624Q80.20625 36.409374 81.2375 36.409374Q82.25313 36.409374 83.03438 35.971874Q83.83125 35.51875 84.20625 34.753124Q84.4875 34.14375 84.4875 32.9875L84.4875 32.346874ZM88.8625 37.55L88.8625 27.175L90.45625 27.175L90.45625 28.659374Q91.59688 26.940624 93.75313 26.940624Q94.69063 26.940624 95.47188 27.284374Q96.26875 27.6125 96.65938 28.159374Q97.05 28.70625 97.20625 29.45625Q97.3 29.95625 97.3 31.175L97.3 37.55L95.53438 37.55L95.53438 31.2375Q95.53438 30.159374 95.33125 29.628124Q95.12813 29.096874 94.59688 28.784374Q94.08125 28.471874 93.37813 28.471874Q92.25313 28.471874 91.44063 29.190624Q90.62813 29.89375 90.62813 31.878124L90.62813 37.55L88.8625 37.55ZM98.78438 41.55L98.59688 39.89375Q99.175 40.05 99.59688 40.05Q100.19063 40.05 100.53438 39.846874Q100.89375 39.659374 101.1125 39.315624Q101.28438 39.05 101.65938 38.003124Q101.70625 37.846874 101.81563 37.565624L97.87813 27.175L99.76875 27.175L101.925 33.190624Q102.34688 34.33125 102.675 35.58125Q102.9875 34.378124 103.39375 33.221874L105.6125 27.175L107.37813 27.175L103.425 37.721874Q102.8 39.440624 102.44063 40.08125Q101.97188 40.95625 101.3625 41.346874Q100.76875 41.753124 99.925 41.753124Q99.40938 41.753124 98.78438 41.55ZM101.65938 25.89375L102.95625 23.159374L105.25313 23.159374L103.1125 25.89375L101.65938 25.89375ZM114.8625 41.51875L114.8625 27.175L116.47188 27.175L116.47188 28.51875Q117.03438 27.7375 117.7375 27.346874Q118.45625 26.940624 119.47188 26.940624Q120.8 26.940624 121.81563 27.628124Q122.83125 28.315624 123.34688 29.565624Q123.87813 30.8 123.87813 32.284374Q123.87813 33.878124 123.3 35.159374Q122.7375 36.425 121.64375 37.1125Q120.55 37.784374 119.34688 37.784374Q118.47188 37.784374 117.76875 37.409374Q117.08125 37.034374 116.62813 36.471874L116.62813 41.51875L114.8625 41.51875ZM116.45625 32.425Q116.45625 34.425 117.26875 35.378124Q118.08125 36.33125 119.2375 36.33125Q120.40938 36.33125 121.2375 35.346874Q122.08125 34.3625 122.08125 32.26875Q122.08125 30.3 121.25313 29.315624Q120.44063 28.315624 119.31563 28.315624Q118.19063 28.315624 117.31563 29.378124Q116.45625 30.425 116.45625 32.425ZM125.22188 32.3625Q125.22188 29.4875 126.81563 28.096874Q128.15938 26.940624 130.08125 26.940624Q132.22188 26.940624 133.56563 28.346874Q134.925 29.753124 134.925 32.221874Q134.925 34.221874 134.33125 35.378124Q133.7375 36.51875 132.58125 37.159374Q131.44063 37.784374 130.08125 37.784374Q127.89375 37.784374 126.55 36.39375Q125.22188 34.9875 125.22188 32.3625ZM127.01875 32.3625Q127.01875 34.3625 127.87813 35.346874Q128.75313 36.33125 130.08125 36.33125Q131.39375 36.33125 132.25313 35.346874Q133.12813 34.346874 133.12813 32.3Q133.12813 30.378124 132.25313 29.39375Q131.37813 28.39375 130.08125 28.39375Q128.75313 28.39375 127.87813 29.39375Q127.01875 30.378124 127.01875 32.3625ZM143.59688 37.55L143.59688 36.2375Q142.6125 37.784374 140.69063 37.784374Q139.45625 37.784374 138.40938 37.096874Q137.37813 36.409374 136.8 35.190624Q136.2375 33.971874 136.2375 32.378124Q136.2375 30.815624 136.75313 29.55Q137.26875 28.284374 138.3 27.6125Q139.34688 26.940624 140.6125 26.940624Q141.55 26.940624 142.28438 27.346874Q143.01875 27.7375 143.4875 28.3625L143.4875 23.2375L145.22188 23.2375L145.22188 37.55L143.59688 37.55ZM138.03438 32.378124Q138.03438 34.3625 138.87813 35.346874Q139.72188 36.33125 140.8625 36.33125Q142.01875 36.33125 142.81563 35.39375Q143.62813 34.45625 143.62813 32.51875Q143.62813 30.39375 142.8 29.39375Q141.9875 28.39375 140.78438 28.39375Q139.6125 28.39375 138.81563 29.3625Q138.03438 30.315624 138.03438 32.378124ZM148.4875 37.55L148.4875 27.175L150.2375 27.175L150.2375 37.55L148.4875 37.55ZM148.39375 25.89375L149.69063 23.159374L151.9875 23.159374L149.84688 25.89375L148.39375 25.89375ZM153.83125 37.55L153.83125 23.2375L155.58125 23.2375L155.58125 37.55L153.83125 37.55ZM162.94063 37.55L162.94063 36.128124L169.55 28.55Q168.425 28.596874 167.56563 28.596874L163.33125 28.596874L163.33125 27.175L171.81563 27.175L171.81563 28.346874L166.19063 34.925L165.1125 36.128124Q166.28438 36.034374 167.33125 36.034374L172.12813 36.034374L172.12813 37.55L162.94063 37.55ZM172.87813 25.253124L172.87813 23.2375L174.64375 23.2375L174.64375 25.253124L172.87813 25.253124ZM172.87813 37.55L172.87813 27.175L174.64375 27.175L174.64375 37.55L172.87813 37.55ZM176.15938 34.45625L177.90938 34.175Q178.05 35.221874 178.72188 35.784374Q179.39375 36.33125 180.59688 36.33125Q181.8 36.33125 182.37813 35.846874Q182.97188 35.346874 182.97188 34.690624Q182.97188 34.096874 182.45625 33.753124Q182.09688 33.51875 180.65938 33.159374Q178.72188 32.659374 177.97188 32.315624Q177.2375 31.95625 176.84688 31.33125Q176.45625 30.690624 176.45625 29.925Q176.45625 29.2375 176.76875 28.64375Q177.09688 28.05 177.64375 27.659374Q178.05 27.3625 178.75313 27.159374Q179.47188 26.940624 180.28438 26.940624Q181.50313 26.940624 182.425 27.3Q183.34688 27.64375 183.78438 28.253124Q184.22188 28.846874 184.39375 29.846874L182.675 30.08125Q182.55 29.284374 181.9875 28.846874Q181.425 28.39375 180.40938 28.39375Q179.19063 28.39375 178.675 28.8Q178.15938 29.190624 178.15938 29.721874Q178.15938 30.065624 178.37813 30.346874Q178.58125 30.628124 179.05 30.815624Q179.31563 30.909374 180.59688 31.253124Q182.47188 31.753124 183.20625 32.08125Q183.94063 32.39375 184.3625 33.003124Q184.78438 33.596874 184.78438 34.503124Q184.78438 35.378124 184.26875 36.159374Q183.75313 36.940624 182.78438 37.3625Q181.81563 37.784374 180.59688 37.784374Q178.58125 37.784374 177.51875 36.940624Q176.45625 36.096874 176.15938 34.45625ZM186.87813 37.55L186.87813 23.2375L188.64375 23.2375L188.64375 31.39375L192.8 27.175L195.06563 27.175L191.1125 31.01875L195.47188 37.55L193.3 37.55L189.87813 32.253124L188.64375 33.440624L188.64375 37.55L186.87813 37.55ZM203.65938 37.55L203.65938 36.01875Q202.45625 37.784374 200.37813 37.784374Q199.45625 37.784374 198.65938 37.440624Q197.8625 37.08125 197.47188 36.55Q197.09688 36.01875 196.94063 35.2375Q196.83125 34.721874 196.83125 33.596874L196.83125 27.175L198.58125 27.175L198.58125 32.925Q198.58125 34.3 198.69063 34.784374Q198.8625 35.471874 199.39375 35.878124Q199.94063 36.26875 200.72188 36.26875Q201.51875 36.26875 202.20625 35.8625Q202.90938 35.45625 203.19063 34.76875Q203.4875 34.065624 203.4875 32.7375L203.4875 27.175L205.2375 27.175L205.2375 37.55L203.65938 37.55ZM216.22188 41.753124Q214.76875 39.925 213.76875 37.471874Q212.76875 35.003124 212.76875 32.3625Q212.76875 30.034374 213.51875 27.909374Q214.39375 25.440624 216.22188 22.9875L217.4875 22.9875Q216.3 25.01875 215.925 25.89375Q215.33125 27.2375 214.9875 28.70625Q214.56563 30.534374 214.56563 32.378124Q214.56563 37.065624 217.4875 41.753124L216.22188 41.753124ZM220.09688 37.55L220.09688 23.2375L225.4875 23.2375Q226.925 23.2375 227.675 23.3625Q228.72188 23.55 229.44063 24.05Q230.15938 24.534374 230.58125 25.425Q231.01875 26.315624 231.01875 27.378124Q231.01875 29.20625 229.84688 30.471874Q228.69063 31.721874 225.65938 31.721874L221.9875 31.721874L221.9875 37.55L220.09688 37.55ZM221.9875 30.034374L225.69063 30.034374Q227.51875 30.034374 228.28438 29.3625Q229.06563 28.675 229.06563 27.425Q229.06563 26.534374 228.6125 25.89375Q228.15938 25.253124 227.425 25.05Q226.94063 24.925 225.64375 24.925L221.9875 24.925L221.9875 30.034374ZM232.83125 37.55L232.83125 23.2375L234.58125 23.2375L234.58125 37.55L232.83125 37.55ZM243.64375 36.26875Q242.65938 37.096874 241.75313 37.440624Q240.84688 37.784374 239.81563 37.784374Q238.1125 37.784374 237.19063 36.95625Q236.26875 36.1125 236.26875 34.815624Q236.26875 34.05 236.6125 33.425Q236.97188 32.8 237.53438 32.425Q238.09688 32.034374 238.8 31.83125Q239.31563 31.70625 240.3625 31.565624Q242.4875 31.315624 243.4875 30.971874Q243.50313 30.6125 243.50313 30.503124Q243.50313 29.440624 243.00313 28.9875Q242.33125 28.39375 241.00313 28.39375Q239.75313 28.39375 239.15938 28.83125Q238.58125 29.26875 238.3 30.378124L236.58125 30.14375Q236.81563 29.034374 237.34688 28.3625Q237.87813 27.675 238.89375 27.315624Q239.90938 26.940624 241.25313 26.940624Q242.58125 26.940624 243.40938 27.253124Q244.2375 27.565624 244.62813 28.05Q245.01875 28.51875 245.175 29.2375Q245.26875 29.690624 245.26875 30.8625L245.26875 33.20625Q245.26875 35.659374 245.37813 36.315624Q245.4875 36.95625 245.83125 37.55L243.9875 37.55Q243.72188 37.003124 243.64375 36.26875ZM243.4875 32.346874Q242.53438 32.7375 240.6125 33.003124Q239.53438 33.159374 239.08125 33.3625Q238.64375 33.55 238.39375 33.925Q238.14375 34.3 238.14375 34.76875Q238.14375 35.471874 238.675 35.940624Q239.20625 36.409374 240.2375 36.409374Q241.25313 36.409374 242.03438 35.971874Q242.83125 35.51875 243.20625 34.753124Q243.4875 34.14375 243.4875 32.9875L243.4875 32.346874ZM240.08125 25.89375L241.37813 23.159374L243.675 23.159374L241.53438 25.89375L240.08125 25.89375ZM247.8625 37.55L247.8625 27.175L249.45625 27.175L249.45625 28.659374Q250.59688 26.940624 252.75313 26.940624Q253.69063 26.940624 254.47188 27.284374Q255.26875 27.6125 255.65938 28.159374Q256.05 28.70625 256.20624 29.45625Q256.3 29.95625 256.3 31.175L256.3 37.55L254.53438 37.55L254.53438 31.2375Q254.53438 30.159374 254.33125 29.628124Q254.12813 29.096874 253.59688 28.784374Q253.08125 28.471874 252.37813 28.471874Q251.25313 28.471874 250.44063 29.190624Q249.62813 29.89375 249.62813 31.878124L249.62813 37.55L247.8625 37.55ZM270.0031 37.55L268.2375 37.55L268.2375 26.346874Q267.6125 26.95625 266.58124 27.565624Q265.55 28.159374 264.72186 28.471874L264.72186 26.76875Q266.20624 26.08125 267.3 25.096874Q268.40936 24.096874 268.8625 23.175L270.0031 23.175L270.0031 37.55ZM276.01874 41.753124L274.76874 41.753124Q277.675 37.065624 277.675 32.378124Q277.675 30.534374 277.26874 28.7375Q276.925 27.26875 276.33124 25.925Q275.95624 25.034374 274.76874 22.9875L276.01874 22.9875Q277.8625 25.440624 278.7375 27.909374Q279.4875 30.034374 279.4875 32.3625Q279.4875 35.003124 278.47186 37.471874Q277.47186 39.925 276.01874 41.753124Z" fill-rule="nonzero"/></svg>